HIERARCHY
ROOT hip
{
	OFFSET 0.000000 0.000000 0.000000
	CHANNELS 6 Xposition Yposition Zposition Xrotation Zrotation Yrotation 
	JOINT abdomen
	{
		OFFSET 0.000000 0.000000 0.000000
		CHANNELS 3 Xrotation Zrotation Yrotation 
		JOINT chest
		{
			OFFSET 0.000000 5.018152 -1.882228
			CHANNELS 3 Xrotation Zrotation Yrotation 
			JOINT neck
			{
				OFFSET 0.000000 2.280413 -0.3928010
				CHANNELS 3 Xrotation Zrotation Yrotation 
				JOINT head
				{
					OFFSET 0.000000 3.496879 0.5294690
					CHANNELS 3 Xrotation Zrotation Yrotation 
					End Site
					{
						OFFSET 0.000000 -6.419331 0.000000
					}
				}
			}
			JOINT lCollar
			{
				OFFSET 0.5992370 8.316447 0.7848970
				CHANNELS 3 Yrotation Zrotation Xrotation 
				JOINT lShldr
				{
					OFFSET 6.421198 0.0101460 -0.3321280
					CHANNELS 3 Zrotation Yrotation Xrotation 
					JOINT lForeArm
					{
						OFFSET 10.55278 0.0255740 0.1255080
						CHANNELS 3 Yrotation Zrotation Xrotation 
						JOINT lHand
						{
							OFFSET 11.03596 0.3196190 0.0415200
							CHANNELS 3 Zrotation Yrotation Xrotation 
							End Site
							{
								OFFSET 10.35375 0.000000 0.000000
							}
						}
					}
				}
			}
			JOINT rCollar
			{
				OFFSET -0.5992370 8.316447 0.7848970
				CHANNELS 3 Yrotation Zrotation Xrotation 
				JOINT rShldr
				{
					OFFSET -6.421198 0.0101460 -0.3321280
					CHANNELS 3 Zrotation Yrotation Xrotation 
					JOINT rForeArm
					{
						OFFSET -10.55278 0.0255740 0.1255080
						CHANNELS 3 Yrotation Zrotation Xrotation 
						JOINT rHand
						{
							OFFSET -11.03596 0.3196190 0.0415200
							CHANNELS 3 Zrotation Yrotation Xrotation 
							End Site
							{
								OFFSET -10.35375 0.000000 0.000000
							}
						}
					}
				}
			}
		}
	}
	JOINT lThigh
	{
		OFFSET 4.500466 -6.400484 -1.832696
		CHANNELS 3 Xrotation Zrotation Yrotation 
		JOINT lShin
		{
			OFFSET -1.359117 -18.91869 1.179887
			CHANNELS 3 Xrotation Zrotation Yrotation 
			JOINT lFoot
			{
				OFFSET -0.6523800 -17.21519 -0.3121370
				CHANNELS 3 Xrotation Yrotation Zrotation 
				End Site
				{
					OFFSET 0.000000 0.000000 10.35375
				}
			}
		}
	}
	JOINT rThigh
	{
		OFFSET -4.500466 -6.400484 -1.832696
		CHANNELS 3 Xrotation Zrotation Yrotation 
		JOINT rShin
		{
			OFFSET 1.359117 -18.91869 1.179887
			CHANNELS 3 Xrotation Zrotation Yrotation 
			JOINT rFoot
			{
				OFFSET 0.6523800 -17.21519 -0.3121370
				CHANNELS 3 Xrotation Yrotation Zrotation 
				End Site
				{
					OFFSET 0.000000 0.000000 10.35375
				}
			}
		}
	}
}
MOTION
Frames:	14
Frame Time:	0.06666667
-0.0257510 40.58662 2.968130 5.556919 0.000000 2.015870 -0.6797230 1.014860 -1.052490 2.752000 0.6388500 -7.299640 0.4079420 0.0122590 -0.1256210 5.754920 -1.457380 3.998490 -9.241052 -2.655120 -8.994716 -71.74033 -11.76199 4.746030 -31.60425 0.0011650 34.04590 -13.20947 -13.28238 0.0895360 -5.574724 0.4710180 -0.0036540 73.49715 -23.63777 -7.243340 8.720032 0.1163490 30.20142 6.934624 -2.351367 0.2714110 19.70864 0.2635370 -1.303549 16.37695 -5.436259 -0.5345360 4.496281 1.015851 1.747118 -34.91362 -1.222353 -5.287092 -2.923005 1.339154 -2.612716 22.63187 -2.693362 0.4416350 
-0.0427160 39.99832 2.968130 5.983611 0.1952380 2.305610 -0.9075000 1.659612 -0.8255570 3.170562 0.4139390 -6.538830 0.0427510 0.3591020 -0.2041640 4.601790 -1.017530 3.147050 -7.220732 -6.809920 -7.805324 -69.91151 -16.29200 9.884584 -30.28683 0.0011650 34.52690 -12.66613 -12.66293 0.3319030 -3.823218 3.579455 -1.197800 71.22991 -22.17614 -9.132231 8.934833 0.1163490 27.58857 6.341005 -1.810122 0.0889280 31.80497 -0.6573040 -1.730517 2.618905 -2.443246 2.231949 21.05572 1.594669 -3.021200 -29.23277 -0.8716060 -4.452437 -1.019926 1.464713 -1.719640 24.82080 -1.952116 -4.257692 
-0.0490000 40.60387 2.968130 6.780290 0.3518100 1.598240 -2.588980 1.606370 -0.6063710 4.232220 0.1093190 -4.063770 -0.0046320 0.0825280 -0.0927340 3.695360 -0.7544480 1.973470 -3.744470 -8.700970 -4.904962 -70.88610 -17.35770 9.929008 -27.66028 0.0011650 35.16180 -11.80692 -10.87573 0.2852650 2.176580 6.577632 -4.384020 70.63450 -18.15266 -9.667048 10.03265 0.1163490 26.30510 7.008678 -1.223352 0.0747800 -0.7305030 0.4284680 1.743937 54.34729 -4.835621 -1.074371 9.137504 5.289661 -3.020902 -30.70562 -0.8687340 -4.818579 21.60547 1.171606 -0.0342390 -1.272151 -1.886707 -7.032578 
-0.0370750 41.81056 2.968130 7.296476 0.4387100 -0.3847930 -4.810570 0.7177930 -0.4790630 6.622445 -0.7205180 0.2170790 -0.1072710 -0.1669200 0.0205430 3.943000 -0.3966010 0.2499270 0.5136740 -7.977970 -1.134083 -74.42540 -13.28160 5.881170 -21.83660 0.0011650 35.30630 -10.84113 -7.695415 0.2676810 9.603888 7.048002 -9.243760 73.80751 -11.40650 -7.985020 13.65550 0.1163490 26.98030 7.962735 -0.3291820 -0.2501000 -25.45668 1.331627 2.501022 73.94672 -3.461740 -1.227959 6.551764 9.393176 -2.179612 -21.03787 -0.0785040 -4.612796 18.82639 1.075741 0.3011050 -8.326876 -0.7395040 -7.905264 
-0.0492780 42.52045 2.968130 8.028471 0.4387270 -2.183500 -5.438199 0.2072610 -0.4842430 7.701901 -0.9499680 3.168510 -0.0889130 -0.0297360 0.0692490 4.540220 -0.2602800 -2.275510 2.874230 -2.376980 2.091650 -76.07090 -2.581600 0.7454570 -16.12650 0.0011650 34.86560 -9.942211 -3.643180 0.2476490 14.10310 1.174088 -11.53900 76.15389 -2.965070 -5.198220 20.48967 0.1163490 29.01340 9.230290 0.7452390 0.2288370 -38.03374 1.956252 2.239554 62.35056 -2.866381 -0.2397530 8.452842 4.334472 0.6557800 -7.289600 0.3666450 -3.843508 1.867966 1.000802 -0.7417120 -5.670934 1.476608 -7.036381 
-0.1147910 42.30725 2.968130 7.389349 0.3518580 -2.723740 -4.885140 -0.1526010 -0.0863740 6.676330 -0.9908230 5.642550 -0.0815090 0.3846910 0.1674810 4.107840 0.6112240 -3.806190 4.723633 0.3030470 3.157360 -76.51633 9.078669 -2.237584 -11.19450 0.0011650 33.69044 -8.229190 -0.2649510 0.3502730 13.70860 -2.341550 -11.48470 76.44480 4.952410 -2.805780 23.66457 0.1163490 31.16320 11.07391 3.243204 0.1396680 -39.73745 0.9433510 2.634595 37.03880 -0.0079470 0.2421630 3.952889 0.5003140 0.6370110 -2.884728 0.2945820 -4.572917 14.90006 0.3393120 0.5460770 -12.46497 2.812716 -5.142097 
-0.1136690 41.29929 2.968130 7.077470 0.1953070 -3.103870 -2.569706 -0.5870810 0.7460720 4.264240 -0.9203070 6.794440 -0.0655790 0.8732530 0.3329260 4.152214 1.027240 -4.007210 6.108605 0.9400970 2.701448 -74.59380 19.52292 -4.328449 -8.674590 0.0011650 31.67350 -6.320746 1.746516 0.4130220 11.23750 -2.078610 -9.506420 73.19800 10.55287 3.473820 25.37001 0.1163490 33.11210 12.83219 7.515890 0.4558040 -33.10924 0.6728450 2.248022 -2.150151 -1.284785 1.135497 8.195504 0.7814600 0.9302330 6.604897 -0.4295430 -3.435708 18.94620 0.4580620 0.7902670 -11.64451 2.760721 -2.794761 
-0.0257510 40.58662 2.968130 5.315712 0.000000 -2.980694 -0.9209280 -1.497272 1.052490 3.234412 -0.6388500 7.299640 0.4079420 -0.0122590 0.1256210 4.790095 1.457380 -3.998490 5.549260 -3.365490 1.062321 -70.36150 22.98137 -6.453584 -9.202444 -0.1163490 29.47779 -4.281356 2.351367 0.2714110 9.001228 2.655120 -4.562235 69.81071 14.49866 7.158091 26.05653 -0.0011650 34.04590 13.20947 13.28238 0.0895360 -34.63461 1.663542 5.230479 -2.874681 -1.354475 2.571830 22.27972 3.499624 -0.6994310 20.20984 -0.8096520 1.118457 16.39768 5.239849 0.5319330 4.287104 -0.0057910 -1.855253 
-0.0427160 39.99832 2.968130 5.501198 -0.1952380 -2.305610 -0.9075000 -2.142024 1.066763 3.411768 -0.4139390 6.538830 0.0427510 -0.3591020 0.2041640 4.601790 1.017530 -3.147050 3.099600 -8.162370 -1.197800 -69.30029 21.18730 -7.691476 -10.38207 -0.1163490 27.82978 -2.964121 2.533740 0.0889280 5.930410 6.809920 -1.510628 68.94670 16.53321 9.626520 25.46272 -0.0011650 34.76811 12.18372 15.55740 0.3319030 -28.75425 0.7551880 4.375766 -1.009826 -1.458228 1.758046 24.68831 2.019926 4.264540 32.70480 0.5576440 1.612639 2.529472 2.394109 -2.208158 20.77636 -1.529196 3.034380 
-0.0490000 40.60387 2.968130 6.780290 -0.3518100 -1.598240 -2.588980 -1.606370 0.8475770 4.232220 -0.1093190 4.063770 -0.0046320 -0.0825280 0.0927340 3.695360 0.7544480 -1.973470 -3.382610 -9.230900 -4.384020 -70.63450 16.45700 -8.214620 -11.96230 -0.1163490 26.30510 -4.355410 1.223352 0.0747800 2.220852 8.700970 0.7050230 70.88610 16.12165 10.70320 23.80100 -0.0011650 35.40301 10.84210 13.52900 0.2852650 -30.70332 1.151009 4.769948 21.61604 -1.309091 -0.0288900 -1.231163 1.831893 6.845827 -0.7391490 -0.5250250 -1.818685 54.36355 4.687464 1.070386 9.172863 -5.207838 3.084680 
-0.0370750 41.81056 2.968130 7.055270 -0.4387100 0.3847930 -4.569364 -0.7177930 0.4790630 5.657620 0.7205180 -0.4582850 -0.1072710 0.1669200 -0.0205430 3.943000 0.3966010 -0.2499270 -10.08630 -6.565590 -9.243760 -73.08390 11.40650 -7.985020 -17.75600 -0.1163490 26.98030 -8.686354 -1.359260 -0.2501000 -1.313670 7.736764 2.069029 74.42540 9.326259 7.569613 21.11298 -0.0011650 35.30630 9.635085 8.660240 0.2676810 -20.89793 0.0200240 4.532423 18.85304 -1.135874 -0.2918260 -8.274943 0.7717070 7.956114 -25.12860 -1.376650 -2.522182 73.94746 3.378500 1.186994 6.482924 -9.345399 2.210355 
-0.0492780 42.52045 2.968130 6.822440 -0.4387270 2.183500 -4.714581 0.0339450 0.0018310 6.978283 0.9499680 -3.168510 -0.0889130 0.0297360 -0.0692490 4.540220 0.2602800 2.275510 -14.10310 0.0319430 -11.53900 -76.63630 2.965070 -5.714349 -27.72584 -0.1163490 29.01340 -11.88356 -5.810566 0.2288370 -2.874230 2.376980 2.574062 76.07090 -4.814778 2.675105 15.64409 -0.0011650 34.86560 8.494974 2.678356 0.2476490 -5.750584 -0.0682040 3.706347 1.838004 -0.9924500 0.7040120 -6.252903 -1.350606 6.723120 -36.76496 -1.611116 -2.217723 62.39058 2.803816 0.2258220 8.343335 -4.624382 -0.6874000 
-0.1147910 42.30725 2.968130 5.942111 -0.3518580 2.723740 -3.437904 0.3938070 -0.3960380 5.711505 0.9908230 -5.642550 -0.0815090 -0.3846910 -0.1674810 4.107840 -0.6112240 3.806190 -13.70860 2.341550 -11.48470 -76.44480 -4.952410 -2.547715 -31.86555 -0.1163490 31.64561 -12.76236 -9.514564 0.1396680 -3.949440 -0.3030470 2.674948 75.06911 -17.84588 -1.945802 10.71209 -0.0011650 33.44923 7.987984 -0.9410790 0.3502730 -1.522238 0.2477410 4.483660 14.98725 -0.3526480 -0.5609450 -12.46601 -2.716281 4.674154 -37.94170 -0.5235370 -2.521068 37.07784 -0.0044090 -0.2444200 3.539016 -0.8207050 -0.7948700 
-0.1136690 41.29929 2.968130 5.389027 -0.1953070 3.103870 -1.363676 0.5870810 -0.7460720 3.540622 0.9203070 -6.794440 -0.0655790 -0.1496350 -0.3329260 4.875833 -1.027240 4.007210 -9.904170 0.5302230 -9.506420 -73.19800 -10.06840 3.473820 -32.36500 -0.1163490 32.62968 -13.55581 -12.09881 0.4558040 -4.560220 -0.4576850 1.669190 73.62899 -22.59373 -6.134900 8.915796 -0.0011650 31.67350 7.526777 -1.987722 0.4130220 8.712742 0.9255390 3.315778 18.95539 -0.4671390 -0.8017530 -12.08175 -2.643082 2.386326 -31.30434 -0.2056730 -2.097641 -2.062192 1.296254 -1.151119 7.956662 -0.9896620 -1.269012 
